<?xml version="1.0" standalone="no"?><!DOCTYPE svg PUBLIC "-//W3C//DTD SVG 1.1//EN" "http://www.w3.org/Graphics/SVG/1.1/DTD/svg11.dtd"><svg t="1693817100112" class="icon" viewBox="0 0 1024 1024" version="1.1" xmlns="http://www.w3.org/2000/svg" p-id="1487" xmlns:xlink="http://www.w3.org/1999/xlink" width="48" height="48"><path d="M834.4 520.9h-91c-3.8 0-11.4 3.9-11.4 7.8l-15.2 23.4-19-81.9c0-7.8-7.6-11.7-15.2-11.7-3.8 0-11.4 3.9-15.2 11.7l-37.9 120.9-22.8-183.3c0-7.8-7.6-11.7-15.2-11.7-3.8 0-11.4 3.9-15.2 11.7l-64.5 296.4-26.5-479.7c0-7.8-7.6-15.6-15.2-15.6-3.8 0-11.4 3.9-15.2 11.7l-72 319.8-19-163.8c0-3.9-7.6-11.7-11.4-11.7-7.6 0-15.2 3.9-19 11.7l-41.7 136.5-19-74.1c0-7.8-7.6-11.7-11.4-11.7-7.6 0-15.2 3.9-15.2 7.8l-26.5 54.6h-83.4c-7.6 0-15.2 7.8-15.2 15.6s7.6 15.6 15.2 15.6h91c7.6 0 11.4-3.9 15.2-7.8l11.4-27.3 19 85.8c3.8 7.8 7.6 11.7 15.2 11.7s11.4-3.9 15.2-11.7l37.9-120.9L364 630.1c0 7.8 7.6 15.6 15.2 15.6s15.2-3.9 15.2-11.7l68.2-300.3 22.8 483.6c0 7.8 7.6 15.6 15.2 15.6s15.2-3.9 15.2-11.7l72-319.8 19 159.9c0 7.8 7.6 15.6 15.2 15.6s11.4-3.9 15.2-11.7l45.5-136.5 15.2 74.1c3.8 3.9 7.6 11.7 15.2 11.7 3.8 0 11.4-3.9 15.2-7.8l26.5-54.6h79.6c7.6 0 15.2-7.8 15.2-15.6s-7.6-15.6-15.2-15.6z" fill="#229EED" p-id="1488"></path></svg>