<svg xmlns="http://www.w3.org/2000/svg" xmlns:xlink="http://www.w3.org/1999/xlink" fill="none" version="1.1" width="14" height="14" viewBox="0 0 14 14"><g><path d="M13.3763,1.97219L0.608277,1.97219C0.272335,1.97219,0,2.26188,0,2.61923C0,2.97658,0.272335,3.26627,0.608277,3.26627L2.01813,3.26627L2.01813,11.2132C2.01926,12.7508,3.19003,13.9973,4.63549,14L9.34871,14C10.7943,13.9976,11.9653,12.751,11.9665,11.2132L11.9665,3.26452L13.3763,3.26452C13.7181,3.27398,14,2.98183,14,2.61814C14,2.25444,13.7181,1.96229,13.3763,1.97175L13.3763,1.97219ZM6.22342,9.90732C6.22342,10.2644,5.95127,10.5539,5.61556,10.5539C5.27984,10.5539,5.00769,10.2644,5.00769,9.90732L5.00769,5.84307C5.00769,5.48596,5.27984,5.19646,5.61556,5.19646C5.95127,5.19646,6.22342,5.48596,6.22342,5.84307L6.22342,9.90732ZM8.97486,9.90732C8.97486,10.2644,8.70271,10.5539,8.36699,10.5539C8.03128,10.5539,7.75913,10.2644,7.75913,9.90732L7.75913,5.84307C7.75913,5.48596,8.03128,5.19646,8.36699,5.19646C8.70271,5.19646,8.97486,5.48596,8.97486,5.84307L8.97486,9.90732ZM4.66428,1.29452L9.31992,1.29452C9.64981,1.2854,9.91278,0.998299,9.91278,0.647261C9.91278,0.296223,9.64981,0.00912399,9.31992,0L4.66428,0C4.33438,0.0091241,4.07141,0.296223,4.07141,0.647261C4.07141,0.998299,4.33438,1.2854,4.66428,1.29452Z" fill="#FFFFFF" fill-opacity="1"/></g></svg>