<svg xmlns="http://www.w3.org/2000/svg" fill="none" version="1.1" width="24"
     height="20.39599609375" viewBox="0 0 24 20.39599609375">
    <g>
        <g>
            <path d="M21.7416,20.396L20.7886,20.396C20.07,20.396,19.4831,19.8105,19.4831,19.0876L19.4831,10.3275C19.4831,5.49827,16.1266,1.56741,12,1.56741C7.87336,1.56741,4.51664,5.49827,4.51664,10.3275L4.51664,19.0876C4.51664,19.8078,3.93258,20.396,3.21117,20.396L2.25844,20.396C1.01203,20.396,0,19.3816,0,18.1324L0,11.9814C0,10.7322,1.01203,9.71772,2.25844,9.71772L2.96625,9.71772C3.24352,4.30591,7.18969,0,12,0C16.8103,0,20.7562,4.30591,21.0338,9.71772L21.7416,9.71772C22.9877,9.71772,24,10.732,24,11.9814L24,18.1324C24,19.3816,22.9877,20.396,21.7416,20.396ZM21.0499,18.8257L21.7444,18.8257C22.1266,18.8257,22.4388,18.5129,22.4388,18.1297L22.4388,11.9786C22.4388,11.5957,22.1266,11.2826,21.7444,11.2826L21.0499,11.2826L21.0499,18.8257ZM2.25844,11.2854C1.87617,11.2854,1.56398,11.5984,1.56398,11.9814L1.56398,18.1324C1.56398,18.5154,1.87641,18.8284,2.25844,18.8284L2.95289,18.8284L2.95289,11.2854L2.25844,11.2854Z"
                  fill="#FFFFFF" fill-opacity="1"/>
        </g>
        <g>
            <path d="M13.6230048046875,17.258480432128906L13.5772948046875,17.258480432128906C13.2918348046875,17.242180432128904,13.0389448046875,17.072200432128906,12.915184804687499,16.813260432128907L10.9581548046875,12.712640432128907L9.410344804687501,14.660530432128906C9.2622248046875,14.846590432128906,9.0360448046875,14.957270432128906,8.7993348046875,14.957270432128906L5.9999558046875,14.957270432128906C5.5665968046875,14.957270432128906,5.2166748046875,14.606670432128906,5.2166748046875,14.172090432128906C5.2166748046875,13.737740432128906,5.5665968046875,13.387140432128906,5.9999558046875,13.387140432128906L8.419874804687499,13.387140432128906L10.5114448046875,10.753890432128907C10.6783148046875,10.543620532128907,10.9450348046875,10.430223432128907,11.2112848046875,10.462590022128905C11.4777648046875,10.492467232128906,11.7119048046875,10.659507432128907,11.8276848046875,10.902370432128906L13.7118348046875,14.846590432128906L14.3955048046875,13.751320432128907C14.5380048046875,13.522040432128906,14.7885448046875,13.384200432128907,15.0576148046875,13.384200432128907L17.9968748046875,13.384200432128907C18.4304748046875,13.384200432128907,18.780174804687498,13.735030432128905,18.780174804687498,14.169380432128907C18.780174804687498,14.603730432128906,18.4302748046875,14.954550432128906,17.9968748046875,14.954550432128906L15.4911748046875,14.954550432128906L14.2827648046875,16.888860432128908C14.1426148046875,17.120860432128907,13.8897248046875,17.258480432128906,13.6230048046875,17.258480432128906Z"
                  fill="#FFFFFF" fill-opacity="1"/>
        </g>
    </g>
</svg>