<svg xmlns="http://www.w3.org/2000/svg" fill="none" version="1.1" width="24"
     height="20.396039962768555" viewBox="0 0 24 20.396039962768555">
    <g>
        <path d="M24,11.3431L24,17.191C24,18.961,22.5225,20.396,20.7,20.396L3.3,20.396C1.4775,20.396,0,18.961,0,17.191L0,3.20509C0,1.43501,1.4775,0,3.3,0L20.7,0C22.5225,0,24,1.43501,24,3.20509L24,11.3431ZM22.2,9.30467L22.2,3.20509C22.2,2.40049,21.5284,1.74823,20.7,1.74823L3.3,1.74823C2.47157,1.74823,1.8,2.40049,1.8,3.20509L1.8,12.615C2.19625,12.5577,2.59734,12.529,3,12.529C4.88178,12.5263,6.70533,13.1626,8.1552,14.3276C9.6102,10.6456,13.263,8.15842,17.4,8.15842C19.248,8.15842,20.9718,8.61674,22.2,9.30467ZM22.2,11.5512C22.05,11.3239,21.6057,10.9597,20.9724,10.652C20.0091,10.184,18.7794,9.90665,17.4,9.90665C13.9752,9.90665,10.9557,11.99,9.7941,15.061C9.7173,15.2644,9.5859,15.6161,9.4005,16.1149C9.1845,16.6968,8.4315,16.8827,7.9557,16.4716C7.4934,16.0718,7.1526,15.7868,6.9393,15.6207C5.82283,14.7489,4.43259,14.2747,3,14.2772C2.5932,14.2772,2.1921,14.3145,1.8,14.3879L1.8,17.191C1.8,17.9956,2.47157,18.6478,3.3,18.6478L20.7,18.6478C21.5284,18.6478,22.2,17.9956,22.2,17.191L22.2,11.5509L22.2,11.5512ZM6.6,9.3239C5.10883,9.3239,3.9,8.14984,3.9,6.70156C3.9,5.25327,5.10883,4.07921,6.6,4.07921C8.09117,4.07921,9.3,5.25327,9.3,6.70156C9.3,8.14984,8.09117,9.3239,6.6,9.3239ZM6.6,7.57567C7.09706,7.57567,7.5,7.18432,7.5,6.70156C7.5,6.2188,7.09706,5.82744,6.6,5.82744C6.10294,5.82744,5.7,6.2188,5.7,6.70156C5.7,7.18432,6.10294,7.57567,6.6,7.57567Z"
              fill="#FFFFFF" fill-opacity="1"/>
    </g>
</svg>