<svg xmlns="http://www.w3.org/2000/svg" fill="none" version="1.1"
     width="24.0001220703125" height="20.39599609375" viewBox="0 0 24.0001220703125 20.39599609375">
    <g>
        <g>
            <path d="M4.50004243850708,0.849829C4.50004243850708,0.380481,4.83582843850708,0,5.25004243850708,0C5.66425243850708,0,6.00004243850708,0.380481,6.00004243850708,0.849829L6.00004243850708,19.5461C6.00004243850708,20.0154,5.66425243850708,20.3959,5.25004243850708,20.3959C4.83582843850708,20.3959,4.50004243850708,20.0154,4.50004243850708,19.5461L4.50004243850708,0.849829ZM9.75004243850708,7.63146C9.75004243850708,7.17255,10.03504243850708,6.9686,10.41004243850708,7.17255L14.41504243850708,9.4501C15.15004243850708,9.87501,15.13504243850708,10.5549,14.41504243850708,10.9628L13.83004243850708,11.3027L10.42504243850708,13.2233C10.05004243850708,13.4273,9.75004243850708,13.2233,9.75004243850708,12.7644L9.75004243850708,7.63146Z"
                  fill="#FFFFFF" fill-opacity="1"/>
        </g>
        <g>
            <path d="M0.000159479,7.6484936632690435C-0.00832977,7.182006663269043,0.323215,6.798664547269043,0.735159,6.798664547269043L5.23516,6.798664547269043C5.65513,6.789049593269043,6.00016,7.172333663269043,6.00016,7.6484936632690435C6.00865,8.114977663269043,5.6771,8.498317663269043,5.26516,8.498317663269043L0.76516,8.498317663269043C0.345185,8.507937663269043,0.000159495,8.124657663269042,0.000159479,7.6484936632690435ZM0.000159479,12.747467663269042C-0.00833015,12.280977663269043,0.323215,11.897637663269043,0.735159,11.897637663269043L5.23516,11.897637663269043C5.65513,11.888027663269042,6.00016,12.271307663269042,6.00016,12.747467663269042C6.00865,13.213957663269042,5.6771,13.597297663269043,5.26516,13.597297663269043L0.76516,13.597297663269043C0.345185,13.606907663269043,0.000159495,13.223627663269042,0.000159479,12.747467663269042ZM18.0002,7.6484936632690435C17.9917,7.182006663269043,18.3232,6.798664547269043,18.7352,6.798664547269043L23.2352,6.798664547269043C23.6434,6.807824223269043,23.9702,7.185608663269043,23.9702,7.6484936632690435C23.9787,8.114977663269043,23.6471,8.498317663269043,23.2352,8.498317663269043L18.7352,8.498317663269043C18.3269,8.489167663269043,18.0002,8.111377663269042,18.0002,7.6484936632690435ZM18.0002,12.747467663269042C17.9917,12.280977663269043,18.3232,11.897637663269043,18.7352,11.897637663269043L23.2352,11.897637663269043C23.6434,11.906797663269042,23.9702,12.284577663269044,23.9702,12.747467663269042C23.9787,13.213947663269042,23.6471,13.597297663269043,23.2352,13.597297663269043L18.7352,13.597297663269043C18.3269,13.588137663269043,18.0002,13.210347663269044,18.0002,12.747467663269042Z"
                  fill="#FFFFFF" fill-opacity="1"/>
        </g>
        <g>
            <path d="M18.00016975402832,0.849829C18.00016975402832,0.380481,18.33595675402832,0,18.75016975402832,0C19.16437975402832,0,19.50016975402832,0.380481,19.50016975402832,0.849829L19.50016975402832,19.5461C19.50016975402832,20.0154,19.16437975402832,20.3959,18.75016975402832,20.3959C18.33595675402832,20.3959,18.00016975402832,20.0154,18.00016975402832,19.5461L18.00016975402832,0.849829Z"
                  fill="#FFFFFF" fill-opacity="1"/>
        </g>
        <g>
            <path d="M22.2002,0.0000679801L1.80015,0.0000679801C0.808504,-0.00941436,0.000150007,0.898903,0.000149995,2.02266L0.000149995,18.3564C0.00830412,19.479,0.809435,20.3867,1.80015,20.396L22.2002,20.396C23.1918,20.4054,24.0002,19.4971,24.0002,18.3734L24.0002,2.02266C23.9839,0.906719,23.1851,0.00913972,22.2002,0.0000679801ZM22.5002,17.3366C22.5002,18.0809,21.972,18.687,21.3152,18.6963L2.68515,18.6963C2.02833,18.6871,1.50015,18.081,1.50015,17.3366L1.50015,3.05945C1.5001,2.31508,2.02827,1.70903,2.68515,1.69973L21.3152,1.69973C21.972,1.70897,22.5002,2.31503,22.5002,3.05945L22.5002,17.3366Z"
                  fill="#FFFFFF" fill-opacity="1"/>
        </g>
    </g>
</svg>