<svg xmlns="http://www.w3.org/2000/svg" xmlns:xlink="http://www.w3.org/1999/xlink" fill="none" version="1.1" width="15" height="14" viewBox="0 0 15 14"><defs><clipPath id="master_svg0_7_022"><rect x="0" y="0" width="15" height="14" rx="0"/></clipPath></defs><g><g clip-path="url(#master_svg0_7_022)"><g><path d="M12.61226015625,2.5538805859375L11.57666015625,2.5538805859375L11.57666015625,1.7609125859375C11.57666015625,1.2851315859375,11.16064015625,0.8968505859375,10.65088015625,0.8968505859375L2.3774411562499997,0.8968505859375C1.86767615625,0.8968505859375,1.45166015625,1.2851315859375,1.45166015625,1.7609125859375L1.45166015625,10.5997805859375C1.45166015625,11.0755505859375,1.86767615625,11.4638505859375,2.3774411562499997,11.4638505859375L3.41309015625,11.4638505859375L3.41309015625,12.2568505859375C3.41309015625,12.7325505859375,3.82910015625,13.1208505859375,4.33887015625,13.1208505859375L12.61226015625,13.1208505859375C13.12206015625,13.1208505859375,13.53806015625,12.7325505859375,13.53806015625,12.2568505859375L13.53806015625,3.4179405859375C13.53666015625,2.9408005859375,13.12206015625,2.5538805859375,12.61226015625,2.5538805859375ZM2.3774411562499997,10.7009505859375C2.31738315625,10.7009505859375,2.26904315625,10.6558405859375,2.26904315625,10.5997805859375L2.26904315625,1.7595455859375C2.26904315625,1.7034915859375,2.31738315625,1.6583735859375,2.3774411562499997,1.6583735859375L10.65088015625,1.6583735859375C10.71094015625,1.6583735859375,10.75928015625,1.7034915859375,10.75928015625,1.7595455859375L10.75928015625,2.5525105859375L4.33887015625,2.5525105859375C3.82910015625,2.5525105859375,3.41309015625,2.9408005859375,3.41309015625,3.4165805859375L3.41309015625,10.6995805859375L2.3774411562499997,10.6995805859375L2.3774411562499997,10.7009505859375ZM12.72066015625,12.2568505859375C12.72066015625,12.3128505859375,12.67236015625,12.3579505859375,12.61226015625,12.3579505859375L4.33887015625,12.3579505859375C4.27881015625,12.3579505859375,4.23047015625,12.3128505859375,4.23047015625,12.2568505859375L4.23047015625,3.4179405859375C4.23047015625,3.3618905859375,4.27881015625,3.3167705859375,4.33887015625,3.3167705859375L12.61226015625,3.3167705859375C12.67236015625,3.3167705859375,12.72066015625,3.3618905859375,12.72066015625,3.4179405859375L12.72066015625,12.2568505859375ZM8.594240156249999,9.2517305859375L6.26221015625,9.2517305859375C6.03662015625,9.2517305859375,5.85352015625,9.4226305859375,5.85352015625,9.6331805859375C5.85352015625,9.8437205859375,6.03662015625,10.0146205859375,6.26221015625,10.0146205859375L8.594240156249999,10.0146205859375C8.81982015625,10.0146205859375,9.002930156249999,9.8437205859375,9.002930156249999,9.6331805859375C9.002930156249999,9.4226305859375,8.81982015625,9.2517305859375,8.594240156249999,9.2517305859375ZM10.72852015625,7.1886505859375L6.26221015625,7.1886505859375C6.03662015625,7.1886505859375,5.85352015625,7.3595505859375,5.85352015625,7.5700905859375C5.85352015625,7.7806405859375,6.03662015625,7.9515405859375,6.26221015625,7.9515405859375L10.72705015625,7.9515405859375C10.95264015625,7.9515405859375,11.13574015625,7.7806405859375,11.13574015625,7.5700905859375C11.13574015625,7.3595505859375,10.95410015625,7.1886505859375,10.72852015625,7.1886505859375ZM10.72852015625,5.2021205859375L6.26221015625,5.2021205859375C6.03662015625,5.2021205859375,5.85352015625,5.3730205859375,5.85352015625,5.5835705859375C5.85352015625,5.7941205859375,6.03662015625,5.9650105859375,6.26221015625,5.9650105859375L10.72705015625,5.9650105859375C10.95264015625,5.9650105859375,11.13574015625,5.7941205859375,11.13574015625,5.5835705859375C11.13574015625,5.3716605859375,10.95410015625,5.2021205859375,10.72852015625,5.2021205859375Z" fill="#FFFFFF" fill-opacity="1"/></g></g></g></svg>