<svg xmlns="http://www.w3.org/2000/svg" fill="none" version="1.1" width="10"
     height="10" viewBox="0 0 10 10">
    <g>
        <path d="M8.95288,10L1.04712,10C0.469528,9.99827,0.00172579,9.53047,0,8.95288L0,1.04712C0.00172504,0.469528,0.469528,0.00172504,1.04712,0L8.95288,0C9.53047,0.00172523,9.99827,0.469528,10,1.04712L10,8.95288C9.96222,9.5148,9.5148,9.96222,8.95288,10ZM1.04712,0.837696C0.906515,0.846862,0.794506,0.95887,0.78534,1.09948L0.78534,9.00524C0.794505,9.14584,0.906515,9.25785,1.04712,9.26702L8.95288,9.26702C9.09349,9.25785,9.20549,9.14584,9.21466,9.00524L9.21466,1.09948C9.20549,0.958871,9.09349,0.846862,8.95288,0.837696L1.04712,0.837696Z"
              fill="#C4C4C4" fill-opacity="1"/>
    </g>
</svg>