<svg xmlns="http://www.w3.org/2000/svg" xmlns:xlink="http://www.w3.org/1999/xlink" fill="none" version="1.1" width="10.291665077209473" height="10.291666030883789" viewBox="0 0 10.291665077209473 10.291666030883789"><g><path d="M9.20833,0L2.97917,0C2.3816,0.00178441,1.89762,0.485765,1.89583,1.08333L1.89583,1.89583L1.08333,1.89583C0.485766,1.89762,0.0017846,2.3816,0,2.97917L0,9.20833C0.00178528,9.8059,0.485766,10.2899,1.08333,10.2917L7.3125,10.2917C7.91007,10.2899,8.39405,9.8059,8.39583,9.20833L8.39583,8.39583L9.20833,8.39583C9.8059,8.39405,10.2899,7.91007,10.2917,7.3125L10.2917,1.08333C10.2899,0.485765,9.8059,0.00178421,9.20833,0ZM7.52917,9.20833C7.53856,9.36164,7.41163,9.48857,7.25833,9.47917L1.02917,9.47917C0.875866,9.48856,0.748936,9.36163,0.758334,9.20833L0.758334,2.97917C0.748935,2.82587,0.875865,2.69893,1.02917,2.70833L7.3125,2.70833C7.4658,2.69893,7.59273,2.82587,7.58333,2.97917L7.58333,9.20833L7.52917,9.20833ZM9.47917,7.3125C9.48857,7.4658,9.36164,7.59273,9.20833,7.58333L8.39583,7.58333L8.39583,2.97917C8.39405,2.3816,7.91007,1.89762,7.3125,1.89583L2.70833,1.89583L2.70833,1.08333C2.69894,0.930031,2.82587,0.803101,2.97917,0.8125L9.20833,0.8125C9.36164,0.803101,9.48857,0.930032,9.47917,1.08333L9.47917,7.3125Z" fill="#F9F9F9" fill-opacity="1"/></g></svg>
