<svg xmlns="http://www.w3.org/2000/svg" xmlns:xlink="http://www.w3.org/1999/xlink" fill="none" version="1.1" width="16" height="16" viewBox="0 0 16 16"><defs><clipPath id="master_svg0_7_017"><rect x="0" y="0" width="16" height="16" rx="0"/></clipPath></defs><g><g clip-path="url(#master_svg0_7_017)"><g><path d="M14.28024921875,6.747290703125C14.20404921875,6.344420703125,13.95694921875,6.083910703125,13.64044921875,6.083910703125L13.58564921875,6.083910703125C12.73044921875,6.083910703125,12.03484921875,5.388350703125,12.03484921875,4.532930703125C12.03484921875,4.262700703125001,12.16454921875,3.954570703125,12.16954921875,3.942330703125C12.32734921875,3.5872907031250003,12.20624921875,3.1522007031249997,11.88704921875,2.928900703125L10.28234921875,2.035410603125L10.25876921875,2.023866403125C9.93773921875,1.884648803125,9.49833921875,1.973756403125,9.25896921875,2.2231397031249998C9.08573921875,2.401801703125,8.488539218749999,2.911232703125,8.03284921875,2.911232703125C7.57122921875,2.911232703125,6.97270921875,2.391584703125,6.79859921875,2.209532703125C6.55964921875,1.958326803125,6.12478921875,1.864022703125,5.80012921875,2.003000503125L4.13828921875,2.9135027031250003L4.11334921875,2.929380703125C3.79412921875,3.151790703125,3.67260921875,3.586850703125,3.82950921875,3.940530703125C3.83492921875,3.953470703125,3.96507921875,4.2590907031250005,3.96507921875,4.532950703125C3.96507921875,5.388370703125,3.2695092187499997,6.083930703125,2.41434321875,6.083930703125L2.34950721875,6.083930703125C2.04297921875,6.083930703125,1.79585021875,6.344420703125,1.71967821875,6.747300703125C1.71400221875,6.775650703125,1.58544921875,7.457400703125,1.58544921875,8.004020703125C1.58544921875,8.549940703125,1.71400221875,9.231440703125,1.71967821875,9.259570703125C1.79585021875,9.662690703125,2.04297921875,9.923420703125,2.35946821875,9.923420703125L2.41434321875,9.923420703125C3.2695092187499997,9.923420703125,3.96507921875,10.619000703125,3.96507921875,11.474160703125C3.96507921875,11.746220703125,3.83494921875,12.053220703125,3.82995921875,12.065020703125C3.67262921875,12.420720703125,3.79324921875,12.855120703125,4.11154921875,13.077320703125L5.68586921875,13.960620703125L5.70989921875,13.971520703125C6.03546921875,14.114820703125,6.47574921875,14.021320703125,6.71380921875,13.761120703125C6.93370921875,13.523520703125,7.52954921875,13.030120703125,7.96708921875,13.030120703125C8.44137921875,13.030120703125,9.05217921875,13.582420703125,9.228119218749999,13.776520703125C9.39042921875,13.954220703125,9.63982921875,14.061320703125,9.89510921875,14.061320703125C10.01435921875,14.061320703125,10.12725921875,14.037620703125,10.23063921875,13.993220703125L11.86304921875,13.093620703125L11.88704921875,13.078220703125C12.20624921875,12.855120703125,12.32774921875,12.420720703125,12.17044921875,12.066820703125C12.16504921875,12.053620703125,12.03484921875,11.748030703125,12.03484921875,11.474180703125C12.03484921875,10.619010703125,12.73044921875,9.923440703125,13.58564921875,9.923440703125L13.64954921875,9.923440703125C13.95654921875,9.923440703125,14.20404921875,9.662700703125001,14.28024921875,9.259580703125C14.28574921875,9.231460703125,14.41444921875,8.549950703124999,14.41444921875,8.004040703125C14.41444921875,7.457380703125,14.28574921875,6.775640703125,14.28024921875,6.747290703125ZM13.48404921875,8.004000703125C13.48404921875,8.357220703125,13.41374921875,8.811120703124999,13.38154921875,9.000660703125C12.09884921875,9.105850703125,11.10441921875,10.177780703125,11.10441921875,11.474150703125C11.10441921875,11.840070703125,11.22051921875,12.190620703125,11.28218921875,12.351820703125L9.88966921875,13.120820703125C9.82118921875,13.049220703125,9.61895921875,12.845120703125,9.343739218749999,12.640120703125C8.86036921875,12.281920703125,8.39693921875,12.098920703125,7.96706921875,12.098920703125C7.54084921875,12.098920703125,7.08107921875,12.277420703125,6.59997921875,12.631120703125C6.32610921875,12.830620703125,6.12660921875,13.029220703125,6.05676921875,13.102620703125L4.71731921875,12.352720703125C4.78261921875,12.183320703125,4.895539218750001,11.837340703125,4.895539218750001,11.474150703125C4.895539218750001,10.177780703125,3.90115921875,9.105850703125,2.61883921875,9.000660703125C2.58618921875,8.811120703124999,2.5159042187500003,8.357240703125001,2.5159042187500003,8.004000703125C2.5159042187500003,7.650080703125,2.58618921875,7.195970703125,2.61883921875,7.006440703125C3.90115921875,6.901470703125,4.895539218750001,5.829320703125,4.895539218750001,4.532950703125C4.895539218750001,4.169070703125,4.7794592187500005,3.817430703125,4.71778921875,3.656450703125L6.14475921875,2.8722347031249997C6.20686921875,2.934367703125,6.41045921875,3.1336407031249998,6.68886921875,3.331790703125C7.16316921875,3.670280703125,7.61481921875,3.841690703125,8.032869218750001,3.841690703125C8.44683921875,3.841690703125,8.895289218750001,3.673470703125,9.36640921875,3.341550703125C9.64708921875,3.144310703125,9.85022921875,2.947750703125,9.90915921875,2.892204703125L11.28261921875,3.655090703125C11.22049921875,3.815160703125,11.10439921875,4.165660703125,11.10439921875,4.532950703125C11.10439921875,5.829320703125,12.09874921875,6.901470703125,13.38154921875,7.006440703125C13.41374921875,7.196410703125,13.48404921875,7.652350703125,13.48404921875,8.004000703125Z" fill="#FFFFFF" fill-opacity="1"/></g><g><path d="M7.97207140625,5.7130126953125C6.7137914062499995,5.7130126953125,5.68994140625,6.7368826953125005,5.68994140625,7.9951626953125C5.68994140625,9.2536526953125,6.7138114062500005,10.277082695312501,7.97207140625,10.277082695312501C9.230361406250001,10.277082695312501,10.25422140625,9.2536526953125,10.25422140625,7.9951626953125C10.25422140625,6.7368826953125005,9.230361406250001,5.7130126953125,7.97207140625,5.7130126953125ZM9.32378140625,7.9951626953125C9.32378140625,8.7403626953125,8.71754140625,9.3465926953125,7.97207140625,9.3465926953125C7.22663140625,9.3465926953125,6.62083040625,8.7403726953125,6.62083040625,7.9951626953125C6.62083040625,7.2503826953125,7.22663140625,6.6439176953125,7.97207140625,6.6439176953125C8.71754140625,6.6439336953125,9.32378140625,7.2503826953125,9.32378140625,7.9951626953125Z" fill="#FFFFFF" fill-opacity="1"/></g></g></g></svg>