<?xml version="1.0" standalone="no"?><!DOCTYPE svg PUBLIC "-//W3C//DTD SVG 1.1//EN"
        "http://www.w3.org/Graphics/SVG/1.1/DTD/svg11.dtd">
<svg t="1694411942833" class="icon" viewBox="0 0 1024 1024" version="1.1" xmlns="http://www.w3.org/2000/svg" p-id="7262"
     width="48" height="48">
    <path d="M997.903778 247.189085L577.414055 5.361499A25.552365 25.552365 0 1 0 552.883784 49.515987l71.342204 40.883784-140.640218 242.032004c-145.750692-12.060716-267.37995 47.42519-335.247033 164.96607l-40.883784 72.568718-55.806366-31.889352a25.552365 25.552365 0 0 0-25.552365 44.358906l351.600546 202.98799-115.496691 200.126125a25.552365 25.552365 0 0 0 9.40327 34.955635 24.325852 24.325852 0 0 0 12.673974 3.475122 25.756784 25.756784 0 0 0 23.303757-12.878392l115.496691-200.126125 351.600546 203.192409a26.778879 26.778879 0 0 0 12.878392 3.270703 25.552365 25.552365 0 0 0 12.673973-47.629609l-55.806365-31.684933 41.905879-72.364299c67.867082-117.54088 58.668231-252.661788-24.73469-373.268952L900.395952 251.277463l71.342204 40.883784a26.370041 26.370041 0 0 0 12.673973 3.475122 25.552365 25.552365 0 0 0 13.491649-48.447284zM709.059841 481.657588a25.347946 25.347946 0 0 0 1.635351 28.005393c81.767569 108.13761 91.988515 224.860814 31.276096 330.545397l-40.883785 72.364298L150.791764 594.701252l41.905879-72.364298c61.325677-105.071326 167.827935-154.131867 301.72233-138.187192a25.552365 25.552365 0 0 0 25.143527-12.469554L667.358381 116.360974l189.496341 110.386218z"
          fill="#ffffff" p-id="7263"></path>
</svg>