<svg xmlns="http://www.w3.org/2000/svg" xmlns:xlink="http://www.w3.org/1999/xlink" fill="none" version="1.1" width="15.57890796661377" height="17.946094512939453" viewBox="0 0 15.57890796661377 17.946094512939453"><g><path d="M0,3.76406L0,2.33437C0,1.90312,0.349219,1.55625,0.778125,1.55625L5.24531,1.55625L5.24531,0.778125C5.24531,0.346875,5.59453,0,6.02344,0L9.55547,0C9.98672,0,10.3336,0.349219,10.3336,0.778125L10.3336,1.55625L14.8008,1.55625C15.232,1.55625,15.5789,1.90547,15.5789,2.33437L15.5789,3.76406L0,3.76406ZM13.4039,17.168C13.4039,17.5992,13.0547,17.9461,12.6258,17.9461L2.96016,17.9461C2.52891,17.9461,2.18203,17.5969,2.18203,17.168L0.623437,4.31016L14.9625,4.31016L13.4039,17.168ZM5.61094,7.27031C5.61094,6.83906,5.26172,6.49219,4.83281,6.49219C4.40156,6.49219,4.05469,6.84141,4.05469,7.27031L4.05469,15.0633C4.05469,15.4945,4.40391,15.8414,4.83281,15.8414C5.26406,15.8414,5.61094,15.4922,5.61094,15.0633L5.61094,7.27031ZM8.51953,7.27031C8.51953,6.83906,8.17031,6.49219,7.74141,6.49219C7.31016,6.49219,6.96328,6.84141,6.96328,7.27031L6.96328,15.0633C6.96328,15.4945,7.3125,15.8414,7.74141,15.8414C8.17266,15.8414,8.51953,15.4922,8.51953,15.0633L8.51953,7.27031ZM11.482,7.27031C11.482,6.83906,11.1328,6.49219,10.7039,6.49219C10.2727,6.49219,9.92578,6.84141,9.92578,7.27031L9.92578,15.0633C9.92578,15.4945,10.275,15.8414,10.7039,15.8414C11.1352,15.8414,11.482,15.4922,11.482,15.0633L11.482,7.27031Z" fill="#409FEE" fill-opacity="1"/></g></svg>